<svg xmlns="http://www.w3.org/2000/svg" width="138" height="17" viewBox="0 0 138 17"><g><g><g><path fill="#fff" d="M32.19 6.17c2.168 0 3.165.571 3.165 2.002v2.338c0 1.471-.997 2.045-3.164 2.045H23.62l-.294.285v3.829H20.12V6.499l.418-.329zm.022 3.75V8.818c0-.687-.5-.808-1.5-.808h-7.079l-.293.286v2.155l.335.285h7.016c1.04 0 1.5-.113 1.5-.808z"/></g><g><path fill="#fff" d="M41.273 8.092l2.791 4.003-.167.37h-6.165l-1.582 1.918h9.164l.665.369 1.417 1.918h3.706l-8.12-10.62"/></g><g><path fill="#fff" d="M78.058 14.62v-2.858l.335-.285H84.6V9.68H74.77v6.983h14.493v-1.797H78.435"/></g><g><path fill="#fff" d="M89.39 6.17H74.77v1.961h14.62z"/></g><g><path fill="#fff" d="M58.486 8.046h11.788c-.168-1.471-1.127-1.886-3.459-1.886H58.36c-2.665 0-3.5.49-3.5 2.492v5.56c0 1.962.824 2.492 3.5 2.492h8.447c2.373 0 3.296-.45 3.373-1.96H58.478l-.335-.327V8.291"/></g><g><path fill="#fff" d="M12.205 10.255H3.667l-.25-.286V8.172l.25-.205h11.538l.165-.366c-.374-.98-1.415-1.471-3.297-1.471H4.041c-2.665 0-3.497.49-3.497 2.492v1.185c0 1.959.824 2.492 3.497 2.492h8.54l.25.245v1.886l-.208.286H.293S0 14.88 0 14.92c.209 1.39 1.167 1.756 3.459 1.756h8.746c2.665 0 3.541-.49 3.541-2.492v-1.438c0-1.959-.876-2.492-3.54-2.492z"/></g><g><path fill="#fff" d="M98.592 6.13H93.76l-.25.49 5.332 3.84a59.34 59.34 0 0 1 3.296-1.717"/></g><g><path fill="#fff" d="M102.92 13.316l4.706 3.348h4.832l.208-.45-6.996-5.024c-.918.695-1.876 1.39-2.747 2.126"/></g><g><path fill="#b2b0b2" d="M97.887 16.665h-4.373l-.374-.57C96.096 13.272 109.348 1.276 138.123 0c0 0-24.116.808-40.236 16.665"/></g></g></g></svg>